<?xml version="1.0" encoding="UTF-8"?>
<!DOCTYPE svg PUBLIC "-//W3C//DTD SVG 1.1//EN" "http://www.w3.org/Graphics/SVG/1.1/DTD/svg11.dtd">
<!-- Creator: CorelDRAW X7 -->
<svg xmlns="http://www.w3.org/2000/svg" xml:space="preserve" width="200mm" height="200mm" version="1.1" style="shape-rendering:geometricPrecision; text-rendering:geometricPrecision; image-rendering:optimizeQuality; fill-rule:evenodd; clip-rule:evenodd"
viewBox="0 0 20000 20000"
 xmlns:xlink="http://www.w3.org/1999/xlink">
 <defs>
  <style type="text/css">
   <![CDATA[
    .fil0 {fill:#007B8B}
    .fil1 {fill:#058090;fill-rule:nonzero}
   ]]>
  </style>
 </defs>
 <g id="Camada_x0020_1">
  <metadata id="CorelCorpID_0Corel-Layer"/>
  <rect class="fil0" width="20000" height="20000"/>
  <g id="_2265383258736">
   <path class="fil1" d="M6755 14600c-125,-17 -195,0 -278,139 -335,566 -705,1110 -996,1561 410,-75 952,-203 1501,-267 519,-60 1036,24 1523,221 454,184 900,384 1346,585 112,50 217,124 312,203 72,60 124,146 184,221 -92,52 -182,140 -278,149 -503,47 -1008,77 -1512,108 -487,30 -976,84 -1462,71 -741,-18 -1406,-300 -2034,-681 -79,-48 -220,-60 -302,-22 -165,76 -336,174 -457,306 -536,584 -1258,834 -1959,1126 -45,18 -96,23 -140,43 -433,200 -489,173 -619,-310l25 -5c124,263 311,344 575,198 58,-32 112,-76 172,-102 299,-130 603,-249 898,-386 66,-30 252,-46 105,-205 -2,-11 -3,-23 -5,-35 652,-269 910,-905 1299,-1416 43,-57 5,-246 -60,-304 -585,-528 -948,-1148 -1025,-1957 -45,-473 -54,-927 56,-1384 16,-66 73,-123 110,-184 45,50 101,93 132,150 299,535 618,1061 881,1613 172,360 255,760 175,1172 -18,96 -29,193 -25,293 330,-815 516,-1664 533,-2542 2,-113 -191,-307 -322,-334 -982,-207 -1340,-916 -1530,-1794 -142,-653 -316,-1299 -472,-1949 -17,-72 -26,-210 -6,-217 117,-38 262,-94 363,-55 390,151 743,363 1039,673 535,560 740,1238 788,1991 22,353 96,702 147,1052 3,3 5,7 7,12 -1,-7 -3,-13 -4,-19 25,-179 89,-363 67,-536 -60,-449 -179,-891 -234,-1341 -53,-431 -48,-870 -84,-1305 -16,-192 -63,-383 -107,-571 -18,-74 -50,-160 -105,-206 -628,-519 -608,-1206 -479,-1905 164,-882 556,-1679 981,-2460 63,-116 108,-243 178,-354 27,-43 101,-56 153,-83 22,46 54,89 65,137 95,422 162,853 285,1266 318,1069 249,2071 -424,2997 -121,167 -207,359 -316,535 -12,19 -70,10 -107,15 0,-4 1,-8 2,-12 -1,6 -2,12 -3,18 -38,19 -75,37 -113,55 -8,-19 -16,-39 -23,-58 1,20 2,40 4,61 71,345 139,691 217,1035 12,55 66,102 101,152 -16,11 -32,22 -48,33 9,7 18,14 27,22 6,-18 12,-36 18,-54 146,-544 503,-959 869,-1357 411,-447 852,-865 1286,-1290 62,-61 154,-93 232,-138 6,85 36,178 15,256 -145,528 -265,1068 -463,1577 -260,670 -705,1177 -1470,1295 -503,78 -521,145 -421,638 149,729 198,1469 95,2213 -19,132 -23,267 -34,409 268,-410 523,-812 791,-1204 108,-157 238,-301 371,-438 50,-50 139,-62 210,-91 9,72 43,150 25,214 -143,484 -277,972 -454,1444 -119,319 -319,607 -695,666 -295,47 -376,250 -450,494 -151,495 -291,998 -493,1472 -130,304 -365,562 -552,841 -60,88 -117,178 -175,267 -22,10 -45,18 -67,27 8,9 17,19 25,28 14,-22 27,-44 40,-66 317,-214 661,-398 946,-648 552,-486 957,-1092 1250,-1763 139,-321 223,-668 314,-1007 178,-658 350,-1317 512,-1979 143,-584 269,-1173 402,-1759 1,-5 3,-9 4,-14 -4,5 -8,11 -12,16 189,-630 312,-1290 581,-1883 346,-760 258,-1484 74,-2243 -156,-649 -118,-1294 22,-1957 170,-807 558,-1507 907,-2231 36,-74 103,-136 162,-198 96,-101 196,-197 295,-296 47,127 110,249 140,380 113,506 220,1013 321,1521 99,497 74,989 -129,1456 -248,567 -515,1126 -749,1636 327,-281 732,-571 1062,-931 234,-255 489,-492 534,-925 55,-535 477,-940 915,-1238 644,-438 1314,-842 1995,-1219 425,-236 890,-402 1342,-587 77,-31 180,-1 271,1 -23,77 -30,163 -71,229 -350,557 -694,1119 -1064,1664 -352,519 -852,879 -1417,1132 -563,252 -1149,451 -1714,697 -184,80 -334,236 -500,358 -41,17 -81,35 -121,53 -8,-1 -15,-3 -22,-3 -4,-1 -8,0 -12,1 11,-3 22,-5 33,-8 40,-17 80,-33 120,-50 594,-157 1182,-406 1784,-444 595,-37 1227,65 1800,243 591,183 1130,531 1692,805 114,56 237,94 347,155 53,31 87,96 130,146 -55,32 -107,84 -166,95 -438,76 -876,154 -1317,213 -702,95 -1405,178 -2109,260 -123,14 -251,-5 -376,-8 -2,-4 -5,-8 -7,-12 5,4 11,7 16,10 -308,-87 -621,-159 -922,-265 -442,-157 -811,-481 -1303,-539 -360,-43 -605,104 -786,376 -344,518 -715,1026 -988,1580 -211,428 -304,917 -424,1386 -154,601 -287,1208 -419,1815 -99,458 -181,921 -275,1401 254,-228 487,-427 705,-641 57,-56 93,-160 96,-243 33,-955 553,-1685 1112,-2392 265,-337 557,-653 843,-972 38,-43 113,-53 171,-78 5,60 26,125 12,180 -114,454 -197,919 -362,1354 -153,405 -395,777 -598,1163 -18,35 -42,66 -65,103 177,-68 356,-121 521,-202 285,-140 607,-180 590,-677 -20,-587 424,-1008 848,-1374 654,-564 1385,-1007 2205,-1293 61,-22 125,-42 190,-49 51,-5 132,-6 149,22 23,38 14,116 -12,157 -79,122 -180,228 -259,350 -272,418 -519,855 -813,1257 -229,313 -513,586 -772,875 300,-33 632,-68 963,-108 35,-4 76,-28 99,-55 561,-672 1626,-767 2230,-646 822,165 1547,555 2282,924 64,32 111,95 166,144 -64,39 -124,102 -193,114 -823,142 -1642,317 -2471,399 -624,62 -1225,-144 -1788,-424 -42,-20 -79,-60 -106,-99 -186,-270 -430,-281 -721,-194 -982,293 -1995,493 -2890,1050 246,-49 492,-108 740,-144 604,-86 1214,-48 1779,156 440,158 841,438 1238,696 410,266 796,571 1192,859 55,41 120,76 160,129 43,56 61,130 90,197 -73,24 -145,71 -217,70 -578,-5 -1156,-27 -1734,-29 -663,-3 -1295,-142 -1897,-410 -539,-239 -1002,-590 -1417,-1006 -294,-296 -410,-317 -742,-88 -839,577 -1530,1267 -1715,2330 -30,167 -101,326 -153,489 121,-98 238,-202 365,-293 389,-278 842,-355 1303,-377 1079,-52 2093,219 3073,644 45,19 103,23 136,54 105,99 202,207 302,311 -116,12 -232,31 -349,34 -892,24 -1784,32 -2675,71 -645,29 -1280,3 -1905,-172 -62,-17 -133,-4 -200,-5l1 0zm-3018 -1828l0 0c-5,34 -10,69 -15,103 -10,68 -20,136 -29,204 -2,31 -4,62 -4,96 -4,8 -8,16 -10,24 -1,4 2,8 3,12 1,-15 3,-29 4,-44 -4,468 16,934 218,1368 121,262 264,513 411,796 -166,-662 -318,-1280 -480,-1895 -32,-124 -99,-238 -148,-357 9,-67 19,-134 30,-201 4,-35 8,-70 12,-104 -7,-13 -15,-25 -23,-38 11,12 21,24 31,36zm5195 -6707l0 0c-12,16 -23,32 -34,48 15,12 31,24 46,37 11,-17 23,-33 34,-49 -15,-12 -31,-24 -46,-36zm2714 3984l0 0c-7,0 -14,1 -21,1 0,-7 1,-15 2,-22 10,7 19,15 27,22 -2,-6 -3,-12 -4,-18 -1,6 -2,11 -4,17zm-1858 -1086l0 0c0,-4 0,-7 -1,-11 1,6 1,12 1,18 -2,25 -4,51 -6,77 -161,267 -314,541 -486,800 -364,550 -739,1093 -1139,1682 76,-31 104,-35 122,-51 118,-98 235,-198 351,-299 650,-566 1069,-1257 1146,-2131 4,-28 9,-57 12,-85zm4250 3912l0 0c-1,-5 -2,-10 -3,-15 3,6 6,13 8,18 4,1 9,2 14,3 -6,-2 -12,-4 -19,-6zm-2602 1696l0 0c9,-6 19,-12 29,-18 -7,7 -13,14 -18,20 1,-4 2,-9 2,-13 -4,4 -9,8 -13,11zm-3160 -3575l0 0c4,3 8,5 13,7 -5,-5 -9,-10 -14,-15 -1,-7 -1,-15 -2,-23 10,9 19,17 28,25 -9,3 -17,5 -25,6zm953 98l0 0c-22,12 -44,24 -66,37 6,7 12,15 17,22 15,-21 29,-43 44,-63l14 11 -9 -7zm1335 3065l0 0c11,5 22,10 32,15 -6,4 -12,8 -18,12 -4,-6 -9,-13 -13,-20 -34,12 -69,23 -104,34 -28,-41 -50,-109 -86,-118 -1016,-250 -2035,-400 -3061,-55 -11,12 -22,24 -33,37 9,3 18,6 26,9 2,-16 3,-32 5,-49 39,30 79,85 117,84 285,-4 571,-40 855,-28 727,28 1454,76 2182,115 33,-12 66,-24 98,-36zm-3959 -2035l0 0c16,-16 32,-32 48,-49 -16,16 -32,32 -48,47 -9,29 -18,58 -26,88 -20,0 -40,1 -59,2 2,15 5,29 7,44 -168,217 -337,434 -505,651 36,24 72,47 108,70 144,-241 287,-482 431,-723 19,-14 24,-31 14,-53 16,6 31,12 46,18 -5,-32 -10,-63 -16,-95zm3031 -3283l0 0c-6,2 -12,4 -18,6 0,-7 1,-13 1,-19 5,6 9,12 14,18 -9,17 -20,33 -26,51 -10,30 -17,62 -25,93 19,-50 37,-100 54,-149zm1014 1398l0 0c1252,-296 1877,-1254 2369,-2350 -789,787 -1578,1573 -2367,2360 -23,4 -45,8 -67,12 2,9 4,17 6,26 20,-16 39,-32 59,-48zm-5541 1730l0 0c6,52 13,104 19,155 18,-6 37,-12 55,-19 -27,-45 -54,-90 -81,-134 231,-1364 -524,-2785 -1551,-3109 508,579 827,1242 1093,1936 151,392 310,781 465,1171zm7971 -4308l0 0c-125,64 -248,133 -376,190 -855,377 -1602,903 -2130,1681 -133,196 -112,496 -162,749 -5,12 -10,24 -15,36 5,-4 14,-8 14,-11 0,-9 -4,-17 -7,-25 395,-416 778,-845 1188,-1245 484,-472 991,-919 1488,-1376 7,15 15,29 22,44 7,-6 14,-12 21,-18 -15,-9 -29,-17 -43,-25zm-7780 639l0 0 11 6 -20 -9c68,-68 164,-123 201,-205 217,-472 470,-935 615,-1429 230,-788 -50,-1539 -287,-2285 -117,673 -210,1344 -294,2015 -80,636 -153,1272 -226,1907zm9912 -2225l0 0c-1521,-112 -3042,-223 -4563,-334 176,161 370,254 560,355 446,239 921,458 1422,426 748,-47 1490,-190 2233,-304 121,-18 233,-95 350,-145 11,23 23,47 35,70 11,-8 23,-16 35,-24 -24,-15 -48,-30 -72,-44zm-5615 -4288l0 0c20,-50 41,-99 58,-150 1,-2 -25,-13 -39,-20 -3,56 -6,112 -9,169 -46,205 -102,409 -136,617 -111,666 -222,1331 -316,1999 -73,522 -120,1047 -178,1571 175,-182 285,-380 391,-580 482,-911 868,-1839 481,-2895 -86,-236 -168,-474 -252,-711zm2864 1540l0 0 14 -11 -15 0c-494,411 -990,820 -1483,1233 -41,34 -65,89 -97,134 50,-6 101,-4 147,-18 791,-239 1560,-499 2261,-974 717,-485 1090,-1187 1477,-1902 -69,23 -119,66 -174,103 -710,478 -1420,956 -2130,1435zm3273 2606l0 0c-1971,-1306 -4029,-1236 -5361,-387 1739,125 3537,255 5361,387zm-7091 800l0 0c281,-1793 559,-3565 829,-5294 -1040,1601 -1501,3345 -829,5294zm8607 3490l0 0c-100,-40 -132,-62 -167,-67 -726,-97 -1450,-201 -2177,-285 -524,-60 -1051,-102 -1578,-133 -108,-6 -220,77 -331,119 58,85 99,191 176,250 643,491 1413,507 2156,469 622,-31 1236,-220 1921,-353zm-8068 986l0 0c1281,1416 2839,1777 4582,1588 -1504,-521 -3007,-1042 -4582,-1588zm-3505 -7190l0 0c-450,895 -930,1776 -1050,2785 -68,566 27,1095 489,1466 187,-1413 374,-2832 561,-4251zm-647 8384l0 0c-480,-1248 -783,-2581 -1734,-3606 31,161 91,313 126,470 149,660 287,1323 436,1984 124,554 655,1070 1172,1152zm8986 280l0 0c-663,-1065 -3209,-1977 -4268,-1509 1438,509 2844,1006 4268,1509zm-4078 4527l0 0c-5,-23 -10,-47 -15,-70 -776,-85 -1552,-166 -2328,-256 -417,-48 -832,-117 -1250,-165 -339,-38 -680,-61 -1020,-82 -59,-3 -120,39 -180,60 29,36 51,84 88,104 604,331 1227,604 1934,602 396,-2 794,13 1188,-16 529,-40 1056,-116 1583,-177zm1076 -12931l0 0c1125,-1161 2623,-1721 3775,-2765 -89,-7 -179,-7 -249,29 -484,251 -976,488 -1441,770 -532,323 -1071,649 -1543,1049 -243,206 -556,454 -542,917zm-1519 12662l0 0c7,-23 13,-47 20,-71 -211,-89 -425,-172 -633,-267 -946,-431 -1920,-519 -2923,-239 -66,18 -124,68 -186,103 69,23 135,59 205,67 857,102 1715,201 2572,299 315,37 630,73 945,108zm1798 -2443l0 0c-853,-258 -3285,-310 -4361,-157 137,56 242,128 352,138 589,55 1180,123 1771,130 560,6 1121,-58 1682,-89 185,-10 371,-15 556,-22zm5172 -4623l0 0c-125,-97 -193,-183 -279,-211 -423,-134 -844,-300 -1278,-365 -461,-68 -941,-54 -1376,177 -38,20 -68,55 -101,82 40,21 79,56 121,59 570,44 1141,77 1711,125 383,32 765,84 1202,133zm-12541 3009l0 0c-35,11 -71,22 -106,33 191,693 370,1389 581,2075 50,161 206,289 313,432 25,-169 54,-337 75,-507 6,-46 -9,-95 -14,-143 -71,-730 -579,-1254 -849,-1890zm1654 -2973l0 0c744,-683 1440,-1403 1883,-2328 -746,679 -1507,1345 -1883,2328zm1810 -1827l0 0c-18,22 -37,43 -52,67 -391,624 -806,1228 -1431,1652 -27,18 -37,63 -54,96 46,8 99,35 138,22 349,-111 692,-224 921,-552 270,-387 453,-801 478,-1285zm-1886 5787l0 0c613,-78 1018,-582 991,-1166 -338,398 -665,782 -991,1166zm4027 -4764l0 0c-28,-19 -56,-37 -84,-55 -445,554 -922,1088 -1059,1829 381,-592 762,-1183 1143,-1774zm-5897 8454l0 0c11,-25 18,-42 25,-59 -23,7 -52,7 -70,21 -14,12 -17,39 -25,60 25,-8 50,-16 70,-22zm1614 -5227l0 0c2,-19 11,-39 5,-54 -4,-10 -28,-12 -42,-18 -5,16 -17,38 -11,49 6,12 30,15 48,23zm4939 -6700l0 0c-4,-5 -8,-13 -14,-16 -2,-2 -10,4 -15,7 5,5 8,13 14,16 3,2 10,-4 15,-7zm-4163 7463l0 0c-4,-13 -8,-28 -15,-40 -1,-3 -18,-2 -23,3 -4,4 -5,21 -2,22 12,7 27,11 40,15zm8895 -11695l0 0c-10,0 -25,-3 -28,2 -8,15 -12,33 -18,50 9,-1 25,2 27,-3 9,-15 13,-32 19,-49zm-9403 8623l0 0 -8 26 23 -14 -15 -12zm3481 -3601l0 0c-8,0 -19,-2 -23,2 -4,4 -1,15 0,23 7,-1 18,2 22,-2 4,-4 1,-15 1,-23zm-5132 11009l0 0c0,-8 0,-15 -1,-23 -7,1 -17,-2 -21,2 -4,4 -1,14 -1,22 8,-1 15,-1 23,-1z"/>
   <path class="fil1" d="M1829 17835c508,-106 1017,-211 1525,-317 2,12 3,24 5,35 -478,263 -995,331 -1530,314 0,-11 0,-22 0,-32z"/>
   <path class="fil1" d="M1584 18053c-35,-64 -70,-128 -104,-192 116,-8 233,-18 349,-26 0,10 0,21 0,32 -110,15 -246,0 -220,181l-25 5z"/>
   <path class="fil1" d="M6754 14600c5,6 11,11 16,17 -9,1 -18,2 -26,3 3,-7 7,-14 11,-20l-1 0z"/>
   <path class="fil1" d="M8933 6056c18,14 36,27 54,41 -14,18 -29,36 -43,54 -17,-13 -35,-27 -52,-40 14,-19 27,-37 41,-55z"/>
  </g>
 </g>
</svg>
