<?xml version="1.0" encoding="UTF-8"?>
<!DOCTYPE svg PUBLIC "-//W3C//DTD SVG 1.1//EN" "http://www.w3.org/Graphics/SVG/1.1/DTD/svg11.dtd">
<!-- Creator: CorelDRAW X7 -->
<svg xmlns="http://www.w3.org/2000/svg" xml:space="preserve" width="297mm" height="210mm" version="1.1" style="shape-rendering:geometricPrecision; text-rendering:geometricPrecision; image-rendering:optimizeQuality; fill-rule:evenodd; clip-rule:evenodd"
viewBox="0 0 29700 21000"
 xmlns:xlink="http://www.w3.org/1999/xlink">
 <defs>
  <style type="text/css">
   <![CDATA[
    .fil0 {fill:white}
    .fil1 {fill:#FCCD4B;fill-rule:nonzero}
    .fil2 {fill:white;fill-rule:nonzero}
   ]]>
  </style>
 </defs>
 <g id="Camada_x0020_1">
  <metadata id="CorelCorpID_0Corel-Layer"/>
  <g id="_2229106883952">
   <g>
    <path class="fil0" d="M9413 11149l-31 11c-78,22 -93,32 -114,64 -21,54 -15,97 36,193 47,86 42,38 42,628 0,289 0,547 0,568 -5,43 -5,48 -31,70 -21,27 -26,27 -62,21 -21,0 -37,-5 -47,-21 -15,-11 -145,-215 -398,-622 -451,-729 -435,-702 -461,-799 -26,-59 -41,-91 -67,-97 -16,-10 -37,-10 -187,-5 -88,5 -186,5 -222,5 -119,0 -150,11 -171,59 -15,22 -15,38 -15,65 0,43 10,70 51,134 16,27 31,53 37,59 5,16 5,129 5,981 0,692 0,965 0,981 -16,70 -42,134 -57,172 -16,43 -36,80 -36,102 0,21 31,53 62,59 26,10 57,10 196,5 88,0 181,-5 202,-11 26,0 62,0 83,0 57,0 62,0 83,-16 20,-27 20,-43 -11,-91 -57,-91 -57,-86 -57,-708 0,-284 0,-552 6,-600 5,-81 5,-86 15,-102 31,-32 57,-27 109,43 77,86 119,161 466,718 264,429 357,585 367,612 5,26 5,53 5,91 0,75 21,102 88,118 11,5 36,10 47,10 10,0 57,-5 108,-10 47,-6 130,-11 182,-16 51,0 113,-6 129,-6 83,0 124,-43 124,-123 0,-48 0,-54 -52,-150 -15,-22 -25,-59 -31,-75 -5,-22 -5,-290 0,-987 6,-1072 6,-976 52,-1088 36,-81 42,-113 21,-167 -21,-59 -36,-64 -186,-69 -63,0 -145,-6 -182,-6 0,0 -20,0 -41,0 -26,0 -52,0 -72,6l15 -6z"/>
    <path class="fil0" d="M11885 13857c-54,5 -156,5 -215,5 -91,0 -112,-5 -128,-10 -43,-22 -54,-59 -32,-124 37,-101 0,-241 -59,-332 -43,-54 -97,-102 -156,-134 -102,-48 -230,-48 -343,-43 -38,0 -80,0 -113,11 -32,10 -64,27 -96,48 -32,16 -70,43 -91,75 -27,38 -38,86 -54,134 -21,81 -64,156 -11,241 38,49 27,92 -32,102 -16,6 -59,6 -102,0 -43,-5 -155,-5 -246,-10 -97,0 -183,-6 -193,-11 -11,-6 -32,-16 -38,-27 -21,-11 -21,-16 -16,-43 5,-32 38,-86 80,-155 17,-22 38,-54 43,-59 6,-11 145,-483 306,-1051l236 -783c43,-139 75,-274 75,-295l0 -48c0,-81 0,-86 11,-107 16,-27 59,-49 118,-65 75,-5 128,-5 193,0 37,6 91,16 139,16 54,6 97,11 107,16 38,16 54,49 65,129 5,32 16,97 21,139 22,81 590,1867 611,1894 0,5 16,32 16,65 22,65 43,103 97,178 59,87 86,136 80,168 -5,48 -10,60 -21,65 -11,6 -97,11 -231,22l-21 -11zm-756 -1528c-11,-21 -16,-48 -22,-75 -10,-22 -37,-27 -58,-27 -49,-5 -70,43 -81,81 -27,80 -54,166 -86,257 -5,16 -16,48 6,54 64,42 150,69 225,48 27,-11 53,-27 75,-48 32,-43 5,-118 -5,-151 -11,-43 -27,-96 -49,-139l-5 0z"/>
   </g>
   <g>
    <path class="fil0" d="M12590 10409c-101,0 -193,0 -201,8l-9 17c-33,33 -67,100 -84,234 0,0 -8,25 -8,59 -8,25 -8,92 0,142l8 92c9,101 17,185 26,201 8,9 25,34 25,59 25,84 67,117 184,117 67,9 134,0 234,-50 109,-42 151,-59 352,-84 134,-16 168,-16 193,-16 58,25 159,83 209,150 101,92 92,-58 84,1332 -8,997 -17,1239 -17,1315 -17,67 -42,142 -84,260 -33,92 -58,175 -58,192 0,42 25,67 67,101 25,16 42,16 435,8 0,0 92,0 210,0 109,0 209,-8 226,-17l17 -25c92,-75 92,-125 8,-327 0,0 -8,-33 -34,-67 -16,-50 -33,-175 -33,-293l0 -217c0,-235 0,-813 8,-1273l9 -444c0,-218 8,-419 8,-444l25 -34c17,-42 34,-92 50,-109 26,-33 93,-75 176,-100 59,-8 84,-8 226,-8 168,0 252,16 411,75 75,25 92,33 142,25 50,-8 59,-8 92,-33 59,-59 67,-84 67,-176 0,-42 9,-109 17,-151 0,-42 8,-92 17,-109 0,-17 8,-50 17,-84 0,-25 8,-75 8,-117 0,-33 8,-84 8,-109 9,-33 9,-67 9,-75 0,-17 -59,-25 -285,-59 -117,-8 -184,-8 -1156,17 -762,17 -1139,25 -1407,17 0,0 -84,0 -184,0l-8 0z"/>
    <path class="fil0" d="M16477 14613c0,-8 17,-8 34,-8 58,0 1499,-76 1524,-92 8,-9 25,-17 33,-34 9,-25 9,-184 9,-385 0,-319 0,-344 -9,-377 -33,-59 -83,-67 -176,-25 -83,50 -134,58 -284,58 -67,9 -201,17 -285,25 -184,9 -226,9 -360,-50 -76,-33 -134,-84 -168,-151 -16,-33 -16,-58 -16,-142 0,-142 8,-218 50,-310 42,-109 67,-142 117,-184 75,-42 134,-59 461,-67 0,0 67,0 142,-8 75,-9 151,0 168,8l50 8c42,17 92,34 117,42 17,9 42,17 59,17 33,0 117,-34 134,-59 0,-8 8,-117 8,-368 0,-385 0,-402 -42,-444 -58,-50 -167,-50 -285,-17 -75,17 -108,17 -452,34 -335,8 -377,8 -402,0 -33,-17 -117,-109 -125,-144 0,-8 0,-119 0,-228 0,0 0,-51 0,-110 0,-60 8,-127 16,-152l9 -43c50,-92 83,-136 201,-194 0,0 16,-9 42,-25 25,-9 92,-17 159,-17l117 -9c226,-8 243,-8 301,17 42,0 84,25 101,34 50,33 134,42 218,33 67,0 75,-8 100,-33 50,-51 59,-92 59,-411 0,-150 0,-385 -9,-402 -8,0 -33,-8 -92,-8 -50,0 -150,-8 -217,-17 -109,-8 -168,-8 -737,0 -335,9 -662,17 -704,9 -109,-9 -260,8 -318,25 -101,25 -151,109 -151,209 0,50 0,84 42,184 33,67 59,143 75,151 9,17 34,67 34,101 17,50 17,159 0,1448l0 975c0,218 -9,428 -17,445l-17 50c-8,35 -42,127 -75,194 -25,67 -59,136 -67,169 -17,59 -17,151 0,176 33,69 50,77 176,77 151,8 410,0 419,-8l33 33zm-452 -4062c-25,0 -25,0 -9,-8 17,-17 26,-17 26,0 0,8 -9,16 -17,16l0 -8z"/>
    <path class="fil0" d="M19418 10367c-109,8 -285,17 -377,17 -168,0 -193,0 -268,25 -143,33 -210,92 -260,167 -25,34 -25,42 -17,134 9,109 26,184 101,310 17,42 42,92 42,117 0,25 8,637 17,1349 0,1306 0,1423 -34,1583 -8,75 -59,234 -92,335 -25,58 -25,83 -25,109 8,41 50,75 109,92 58,25 159,25 209,8 25,-8 151,-8 318,-8 0,0 59,0 143,0 75,0 150,-9 159,-17l25 -8c33,-17 59,-34 75,-59 17,-34 17,-59 -16,-92 -17,-25 -42,-92 -67,-151 0,0 -17,-33 -26,-67 -8,-25 -25,-151 -25,-260l0 -201c0,-402 0,-418 17,-494 8,-33 25,-100 42,-125 25,-51 33,-59 67,-84 67,-42 159,-42 226,-42 151,42 184,75 352,427 75,151 201,377 259,511 0,0 34,50 59,117 34,67 59,143 59,151l0 42c0,42 0,109 -9,167 0,101 9,134 67,168 25,17 51,17 118,17 41,0 100,0 125,-9 25,-8 151,-8 335,-8 318,0 352,-8 394,-50 42,-59 17,-143 -92,-218 -34,-25 -59,-50 -67,-67 -9,-8 -51,-109 -109,-218 -42,-109 -168,-360 -268,-569 0,0 -42,-84 -92,-185 -42,-100 -92,-209 -92,-243l0 -58c0,-184 8,-201 92,-251 142,-93 268,-201 343,-327 42,-59 117,-218 142,-302 34,-134 51,-284 34,-452 -25,-377 -151,-678 -360,-913 -168,-192 -344,-293 -637,-360 -217,-50 -385,-50 -988,-8l-8 0zm1214 1549c-75,151 -268,243 -561,251 -75,9 -151,9 -168,9 -16,0 -41,0 -50,0 -151,-17 -218,-50 -293,-143 -92,-100 -126,-167 -142,-351 -9,-84 0,-260 16,-310 26,-50 109,-126 185,-168 176,-83 435,-117 619,-83 84,16 176,58 227,83 16,17 50,59 75,101 100,167 159,469 92,603l0 8z"/>
    <path class="fil0" d="M22577 10367c-109,8 -285,17 -377,17 -167,0 -192,0 -268,25 -142,33 -209,92 -259,167 -26,34 -26,42 -17,134 8,109 25,184 100,310 17,42 42,92 42,117 0,25 9,637 17,1349 0,1306 0,1423 -34,1583 -8,75 -58,234 -92,335 -25,58 -25,83 -25,109 9,41 50,75 109,92 59,25 159,25 209,8 26,-8 151,-8 319,-8 0,0 58,0 142,0 75,0 151,-9 159,-17l25 -8c34,-17 59,-34 76,-59 16,-34 16,-59 -17,-92 -17,-25 -42,-92 -67,-151 0,0 -17,-33 -25,-67 -9,-25 -25,-151 -25,-260l0 -201c0,-402 0,-418 16,-494 9,-33 26,-100 42,-125 25,-51 34,-59 67,-84 67,-42 159,-42 226,-42 151,42 185,75 352,427 76,151 201,377 260,511 0,0 33,50 58,117 34,67 59,143 59,151l0 42c0,42 0,109 -8,167 0,101 8,134 67,168 25,17 50,17 117,17 42,0 100,0 126,-9 25,-8 150,-8 335,-8 318,0 351,-8 393,-50 42,-59 17,-143 -92,-218 -33,-25 -59,-50 -67,-67 -8,-8 -50,-109 -109,-218 -42,-109 -167,-360 -268,-569 0,0 -42,-84 -92,-185 -42,-100 -92,-209 -92,-243l0 -58c0,-184 8,-201 92,-251 142,-93 268,-201 343,-327 42,-59 118,-218 143,-302 33,-134 50,-284 33,-452 -25,-377 -150,-678 -360,-913 -167,-192 -343,-293 -636,-360 -218,-50 -386,-50 -989,-8l-8 0zm1214 1549c-75,151 -268,243 -561,251 -75,9 -150,9 -167,9 -17,0 -42,0 -50,0 -151,-17 -218,-50 -294,-143 -92,-100 -125,-167 -142,-351 -8,-84 0,-260 17,-310 25,-50 109,-126 184,-168 176,-83 436,-117 620,-83 84,16 176,58 226,83 17,17 50,59 75,101 101,167 159,469 92,603l0 8z"/>
    <path class="fil0" d="M27797 14630c-84,8 -243,8 -335,8 -143,0 -176,-8 -201,-17 -67,-33 -84,-92 -50,-192 58,-159 0,-377 -93,-520 -67,-83 -150,-159 -242,-209 -160,-75 -361,-75 -536,-67 -59,0 -126,0 -176,17 -51,17 -101,42 -151,75 -50,25 -109,67 -143,117 -41,59 -58,134 -83,210 -34,125 -101,243 -17,377 59,75 42,142 -50,159 -25,8 -92,8 -159,0 -67,-8 -243,-8 -386,-17 -150,0 -284,-8 -301,-17 -17,-8 -50,-25 -59,-41 -33,-17 -33,-26 -25,-67 8,-51 59,-134 126,-243 25,-34 58,-84 67,-93 8,-16 226,-753 477,-1641l369 -1223c67,-218 117,-427 117,-460l0 -76c0,-125 0,-134 17,-167 25,-42 92,-76 184,-101 117,-8 201,-8 301,0 59,9 143,25 218,25 84,9 151,17 168,25 58,26 83,76 100,201 9,51 25,151 34,218 33,126 921,2916 954,2958 0,8 26,50 26,102 33,100 67,160 150,278 92,135 134,212 126,262 -8,75 -17,94 -34,102 -16,8 -150,17 -360,34l-33 -17zm-1181 -2387c-17,-34 -25,-76 -34,-117 -16,-34 -58,-42 -92,-42 -75,-9 -109,67 -125,125 -42,126 -84,260 -134,402 -9,25 -26,76 8,84 101,67 235,109 352,75 42,-16 84,-41 117,-75 50,-67 8,-184 -8,-234 -17,-67 -42,-151 -76,-218l-8 0z"/>
   </g>
   <g>
    <path class="fil0" d="M3117 8226c80,-65 115,-120 160,-215 55,-115 75,-225 65,-365 -20,-225 -90,-405 -215,-545 -100,-115 -205,-175 -380,-215 -130,-35 -220,-35 -600,-10 -195,15 -215,20 -455,80 -25,5 -50,20 -60,45 -5,10 -15,40 -15,60 -5,55 10,95 40,170 15,30 30,55 30,85 0,30 5,1000 0,1420 0,285 -5,390 -45,485 -30,65 -30,95 -15,130 10,20 20,40 55,45 40,10 185,0 290,-15 35,-10 80,-10 105,-10 70,0 105,-30 110,-90 5,-20 0,-35 -15,-85 -40,-115 -35,-75 -40,-425 0,-175 0,-315 5,-315 0,0 45,-5 90,-5 50,0 130,-5 175,-5 95,0 185,-10 275,-30 185,-35 300,-80 410,-175l30 -15zm-780 -235c-20,0 -50,-5 -60,-10l-10 -15c-40,-35 -60,-55 -85,-110 -45,-105 -45,-240 0,-390 10,-35 20,-45 40,-55 50,-45 95,-55 230,-65 115,-10 175,0 245,25 55,20 70,35 105,85 65,95 95,275 55,360 -40,85 -140,135 -320,155 -40,5 -105,10 -150,10 0,0 -20,0 -45,0l-5 10z"/>
    <path class="fil0" d="M3459 7962c-10,96 -10,271 5,362 30,256 130,487 275,667 170,205 385,330 630,370 35,10 80,10 160,10 125,-5 175,-15 290,-50 405,-130 710,-520 780,-1007 15,-70 20,-276 10,-281 -5,-5 -10,-31 -10,-61 0,-55 -10,-130 -20,-165 -85,-221 -110,-296 -160,-371 -105,-195 -265,-345 -445,-440 -85,-40 -130,-60 -215,-80 -340,-90 -690,15 -950,280 -200,205 -320,460 -360,766l10 0zm445 0c55,-266 200,-471 400,-571 80,-40 125,-50 215,-50 85,0 120,10 200,40 125,55 245,175 315,320 60,131 85,251 85,417 0,236 -85,452 -240,603 -80,90 -155,135 -260,165 -65,15 -165,20 -235,10 -100,-25 -190,-75 -275,-160 -105,-106 -180,-246 -210,-417 -10,-50 -15,-80 -15,-181 0,-100 5,-125 15,-181l5 5z"/>
    <path class="fil0" d="M6302 7021c0,-55 -20,-80 -70,-105 -55,-30 -65,-30 -255,-15 -140,5 -180,15 -215,25 -35,15 -40,35 -40,85 0,45 5,75 40,145 35,80 35,80 25,620 -5,265 -5,545 -5,625 0,120 0,145 5,230 30,185 85,345 155,450 75,110 160,165 320,225 110,45 240,80 335,90 30,0 115,0 190,0 170,0 265,-10 375,-45 150,-45 265,-105 365,-205 100,-110 145,-205 185,-430 30,-165 30,-235 35,-940l5 -405c0,-135 5,-250 10,-265l10 -20c25,-50 45,-120 45,-145 0,-25 -20,-55 -45,-65 -20,-5 -285,-20 -400,-20 -80,0 -140,30 -160,75 -25,45 -15,75 45,170 50,80 50,75 50,360 0,370 -10,685 -20,810 -25,315 -60,470 -115,545 -30,40 -40,50 -95,75 -165,70 -470,75 -630,5 -40,-20 -120,-70 -135,-90 -35,-40 -65,-120 -80,-225 -5,-45 -5,-110 0,-705 5,-730 0,-675 45,-775 25,-45 25,-50 25,-90l0 10z"/>
    <path class="fil0" d="M8333 6991c-150,65 -245,145 -340,270 -35,45 -80,145 -105,210 -65,190 -50,395 35,520 35,50 120,130 175,170 45,30 145,75 225,100 95,30 290,55 485,65 145,0 185,10 290,50 110,40 170,75 225,135 60,60 75,105 80,195 5,55 0,70 -50,125 -60,65 -130,100 -240,125 -40,15 -65,15 -170,15 -120,0 -130,0 -195,-15 -70,-15 -125,-40 -240,-90 -60,-30 -145,-55 -190,-65 -10,-5 -30,-10 -45,-15 -30,-15 -50,-20 -75,-10 -40,20 -65,70 -90,185 -15,50 -25,105 -40,140 -45,95 -50,135 -20,180 35,50 50,55 250,105 155,40 165,40 295,40 70,0 145,0 175,5 25,5 115,5 190,5 170,-5 220,-10 355,-60 150,-50 235,-100 345,-210 105,-110 160,-195 185,-305 10,-50 10,-190 0,-265 -15,-100 -55,-210 -115,-300 -50,-75 -160,-185 -250,-250 -150,-95 -360,-170 -540,-185 -20,0 -95,-5 -170,-10 -145,-10 -280,-30 -340,-45 -50,-20 -110,-55 -120,-75 -15,-10 -20,-20 -20,-45 0,-60 35,-135 90,-200 30,-35 40,-40 110,-75 110,-55 130,-60 365,-45 190,5 220,15 305,65 60,35 80,50 120,100 35,40 55,60 90,65 35,10 90,-25 125,-85 50,-70 130,-245 145,-310 5,-25 5,-35 0,-50 -15,-25 -40,-35 -100,-50 -35,-5 -60,-15 -95,-40 -180,-105 -290,-140 -595,-155 -235,-15 -345,0 -520,75l5 10z"/>
    <path class="fil0" d="M10130 9426c50,5 145,5 200,5 85,0 105,-5 120,-10 40,-20 50,-55 30,-115 -35,-95 0,-225 55,-310 40,-50 90,-95 145,-125 95,-45 215,-45 320,-40 35,0 75,0 105,10 30,10 60,25 90,45 30,15 65,40 85,70 25,35 35,80 50,125 20,75 60,145 10,225 -35,45 -25,85 30,95 15,5 55,5 95,0 40,-5 145,-5 230,-10 90,0 170,-5 180,-10 10,-5 30,-15 35,-25 20,-10 20,-15 15,-40 -5,-30 -35,-80 -75,-145 -15,-20 -35,-50 -40,-55 -5,-10 -135,-450 -285,-980l-220 -730c-40,-130 -70,-255 -70,-275l0 -45c0,-75 0,-80 -10,-100 -15,-25 -55,-45 -110,-60 -70,-5 -120,-5 -180,0 -35,5 -85,15 -130,15 -50,5 -90,10 -100,15 -35,15 -50,45 -60,120 -5,30 -15,90 -20,130 -20,75 -550,1740 -570,1765 0,5 -15,30 -15,61 -20,60 -40,96 -90,166 -55,81 -80,127 -75,157 5,45 10,56 20,61 10,5 90,10 215,20l20 -10zm705 -1425c10,-20 15,-45 20,-70 10,-20 35,-25 55,-25 45,-5 65,40 75,75 25,75 50,155 80,240 5,15 15,45 -5,50 -60,40 -140,65 -210,45 -25,-10 -50,-25 -70,-45 -30,-40 -5,-110 5,-140 10,-40 25,-90 45,-130l5 0z"/>
    <path class="fil0" d="M12122 7726c5,170 5,235 15,690 0,255 0,350 0,395 -5,30 -10,130 -15,215 0,0 0,35 -5,75 0,45 -10,90 -10,100l-10 15c-40,85 -45,90 -45,120 0,40 20,70 45,85 25,10 30,10 385,10 435,0 545,-5 700,-45 185,-50 305,-105 435,-215 95,-85 170,-170 225,-275 65,-130 110,-260 145,-430 10,-60 10,-85 10,-195 0,-295 -45,-545 -140,-760 -65,-155 -165,-280 -280,-370 -160,-120 -295,-180 -450,-220 -155,-30 -260,-35 -615,-15 -185,5 -215,10 -265,15 -30,10 -65,20 -80,20 -30,5 -75,25 -90,35 -15,20 -30,75 -35,110 -5,50 5,95 40,160 40,85 45,110 45,230 0,60 5,175 10,255l-15 -5zm565 -290c15,-10 50,-20 80,-30 0,0 10,-5 25,-15 20,-5 55,-10 80,-10l55 0c100,0 110,0 160,15 30,10 75,20 95,30 80,40 175,115 215,170 50,70 100,200 130,315 20,105 40,345 35,405 -15,155 -75,330 -145,420 -85,110 -240,190 -395,210 -60,5 -120,5 -170,0 -45,-5 -130,-40 -170,-55 -30,-25 -50,-60 -70,-145 0,0 0,-10 -5,-25 -5,-15 -10,-135 -15,-270l0 -325 -5 -330c0,-135 0,-245 0,-255l5 -15c20,-25 60,-70 100,-95l-5 5z"/>
    <path class="fil0" d="M14067 9426c50,5 145,5 200,5 85,0 105,-5 120,-10 40,-20 50,-55 30,-115 -35,-95 0,-225 55,-310 40,-50 90,-95 145,-125 95,-45 215,-45 320,-40 35,0 75,0 105,10 30,10 60,25 90,45 30,15 65,40 85,70 25,35 35,80 50,125 20,75 60,145 10,225 -35,45 -25,85 30,95 15,5 55,5 95,0 40,-5 145,-5 230,-10 90,0 170,-5 180,-10 10,-5 30,-15 35,-25 20,-10 20,-15 15,-40 -5,-30 -35,-80 -75,-145 -15,-20 -35,-50 -40,-55 -5,-10 -135,-450 -285,-980l-220 -730c-40,-130 -70,-255 -70,-275l0 -45c0,-75 0,-80 -10,-100 -15,-25 -55,-45 -110,-60 -70,-5 -120,-5 -180,0 -35,5 -85,15 -130,15 -50,5 -90,10 -100,15 -35,15 -50,45 -60,120 -5,30 -15,90 -20,130 -20,75 -550,1740 -570,1765 0,5 -15,30 -15,61 -20,60 -41,96 -91,166 -55,81 -80,127 -75,157 5,45 10,56 20,61 10,5 90,10 216,20l20 -10zm705 -1425c10,-20 15,-45 20,-70 10,-20 35,-25 55,-25 45,-5 65,40 75,75 25,75 50,155 80,240 5,15 15,45 -5,50 -60,40 -140,65 -210,45 -25,-10 -50,-25 -70,-45 -30,-40 -5,-110 5,-140 10,-40 25,-90 45,-130l5 0z"/>
   </g>
   <path class="fil0" d="M11374 10390c-27,-9 -102,-8 -360,-12 -231,-4 -299,-4 -1712,17 -312,8 -584,18 -829,21 -353,5 -722,2 -722,15 0,4 0,8 0,12 0,13 3,36 -4,56 -7,16 1,32 1,37 13,12 5,28 6,88 0,24 -14,152 0,156 54,17 108,17 258,17 108,5 176,9 190,9 27,8 367,4 1603,-17 1711,-30 1562,-30 1589,-43 14,-8 14,-25 14,-33 0,-13 4,-35 4,-56 0,-18 -6,-41 -6,-53 0,-9 -9,-43 -3,-63 7,-24 12,-45 12,-62 0,-25 6,-40 13,-60 7,-20 0,-25 -13,-29l-41 0z"/>
   <path class="fil0" d="M11547 14140c-27,-9 -102,-8 -360,-12 -231,-4 -299,-4 -1712,17 -312,8 -584,18 -829,21 -353,5 -722,2 -722,15 0,4 0,8 0,12 0,13 3,36 -5,56 -6,16 1,32 1,37 14,12 5,28 6,88 1,24 -13,152 0,156 55,17 109,17 259,17 108,5 176,9 190,9 27,8 367,4 1603,-17 1711,-30 1562,-30 1589,-42 14,-9 14,-26 14,-34 0,-13 4,-35 4,-56 0,-18 -6,-41 -6,-53 0,-9 -10,-43 -3,-63 7,-24 11,-45 11,-62 0,-25 7,-40 14,-60 7,-20 0,-25 -13,-29l-41 0z"/>
   <path class="fil1" d="M26755 8702c4,25 -10,54 -19,77l0 0c-46,140 -653,196 -811,233 -715,144 -1451,108 -2177,109 -2093,35 -4180,-285 -6275,-193 -216,10 -423,37 -639,40 -112,-4 -243,32 -345,-22 -139,-172 -248,-571 -161,-773 61,-90 178,-94 278,-103 117,-1 265,-43 371,-3 1961,92 3912,277 5875,235 607,-1 1225,-68 1788,-301 381,-172 713,-453 1109,-581 156,-68 298,10 107,141 -238,208 -551,321 -766,547 272,-4 615,-216 868,-104 110,-54 122,56 43,91 -297,135 -616,215 -929,310 -423,113 -857,167 -1269,305l2 2 0 -1c650,78 1323,36 1974,-6 148,8 954,-119 976,-3l0 0z"/>
   <g>
    <g>
     <path class="fil0" d="M3989 12620c134,-109 192,-201 268,-360 92,-193 125,-377 109,-612 -34,-377 -151,-678 -361,-913 -167,-192 -343,-293 -636,-360 -218,-58 -369,-58 -1005,-17 -327,26 -360,34 -762,134 -42,9 -84,34 -101,76 -8,17 -25,67 -25,100 -8,92 17,159 67,285 25,50 50,92 50,142 0,51 9,1675 0,2379 0,477 -8,653 -75,812 -50,109 -50,160 -25,218 17,34 33,67 92,76 67,16 310,0 486,-26 58,-16 134,-16 176,-16 117,0 175,-51 184,-151 8,-34 0,-59 -25,-142 -67,-193 -59,-126 -67,-712 0,-294 0,-528 8,-528 0,0 75,-8 151,-8 84,0 218,-9 293,-9 159,0 310,-17 461,-50 309,-59 502,-134 686,-293l51 -25zm-1307 -394c-33,0 -84,-8 -100,-17l-17 -25c-67,-58 -101,-92 -143,-184 -75,-176 -75,-402 0,-653 17,-59 34,-76 67,-92 84,-76 160,-93 386,-109 192,-17 293,0 410,42 92,33 117,58 176,142 109,159 159,461 92,603 -67,142 -234,226 -536,260 -67,8 -176,16 -251,16 0,0 -34,0 -76,0l-8 17z"/>
     <path class="fil0" d="M5104 14613c0,-8 17,-8 34,-8 59,0 1499,-76 1524,-92 9,-9 25,-17 34,-34 8,-25 8,-184 8,-385 0,-319 0,-344 -8,-377 -34,-59 -84,-67 -176,-25 -84,50 -134,58 -285,58 -67,9 -201,17 -285,25 -184,9 -226,9 -360,-50 -75,-33 -134,-84 -167,-151 -17,-33 -17,-58 -17,-142 0,-142 8,-218 50,-310 42,-109 67,-142 117,-184 76,-42 134,-59 461,-67 0,0 67,0 142,-8 76,-9 151,0 168,8l50 8c42,17 92,34 117,42 17,9 42,17 59,17 34,0 117,-34 134,-59 0,-8 8,-117 8,-368 0,-385 0,-402 -41,-444 -59,-50 -168,-50 -285,-17 -76,17 -109,17 -452,34 -335,8 -377,8 -402,0 -34,-17 -118,-109 -126,-144 0,-8 0,-119 0,-228 0,0 0,-51 0,-110 0,-60 8,-127 17,-152l8 -43c50,-92 84,-136 201,-194 0,0 17,-9 42,-25 25,-9 92,-17 159,-17l117 -9c226,-8 243,-8 302,17 42,0 84,25 100,34 51,33 134,42 218,33 67,0 75,-8 101,-33 50,-51 58,-92 58,-411 0,-150 0,-385 -8,-402 -9,0 -34,-8 -92,-8 -51,0 -151,-8 -218,-17 -109,-8 -168,-8 -737,0 -335,9 -662,17 -704,9 -108,-9 -259,8 -318,25 -100,25 -151,109 -151,209 0,50 0,84 42,184 34,67 59,143 76,151 8,17 33,67 33,101 17,50 17,159 0,1448l0 975c0,218 -8,428 -17,445l-16 50c-9,35 -42,127 -76,194 -25,67 -58,136 -67,169 -16,59 -16,151 0,176 34,69 51,77 176,77 151,8 411,0 419,-8l33 33zm-452 -4062c-25,0 -25,0 -8,-8 17,-17 25,-17 25,0 0,8 -8,16 -17,16l0 -8z"/>
    </g>
    <path class="fil0" d="M6186 10079c3,-22 -3,-45 -19,-95 -38,-124 -43,-168 -67,-236 -8,-22 -36,-50 -66,-51 -34,-2 -228,16 -279,22 -52,12 -79,14 -184,38 -39,12 -107,31 -157,37 -127,24 -203,41 -224,50 -26,11 -43,34 -47,46 -1,16 12,88 34,160 2,20 13,62 24,93 27,71 43,100 64,101 28,9 86,4 213,-19 68,-9 188,-25 264,-42 82,-10 153,-25 158,-27 0,0 13,-1 22,1 8,1 18,-3 28,-7 16,-7 58,-15 100,-23 76,-17 123,-37 135,-58l1 10z"/>
   </g>
   <path class="fil2" d="M23075 6665c0,0 188,-431 714,-279 0,0 222,56 276,95 0,0 60,58 -19,42 0,0 24,42 -22,50 0,0 216,280 239,410 0,0 308,210 400,533 0,0 158,336 95,660 0,0 6,98 -21,141 0,0 123,248 21,350 0,0 67,311 132,423 0,0 281,419 299,885 0,0 -60,289 -238,124 0,0 -72,129 -195,-59 0,0 -187,-110 -215,-327 -28,-218 2,-14 2,-14 0,0 -144,-98 -140,-365 0,0 -61,-353 -109,-467 0,0 -101,-58 -122,-204 0,0 -603,-219 -736,-687l-45 -46c0,0 -193,39 -201,-258 0,0 -45,-178 21,-344 0,0 60,-114 47,-214 0,0 -19,-117 -49,-151 0,0 -116,-12 -157,-52 0,0 -185,-53 -285,27 0,0 -169,71 -54,-65 0,0 284,-217 362,-208z"/>
  </g>
 </g>
</svg>
