<?xml version="1.0" standalone="no"?>
<!DOCTYPE svg PUBLIC "-//W3C//DTD SVG 20010904//EN"
 "http://www.w3.org/TR/2001/REC-SVG-20010904/DTD/svg10.dtd">
<svg version="1.0" xmlns="http://www.w3.org/2000/svg"
 width="500.000000pt" height="500.000000pt" viewBox="0 0 500.000000 500.000000"
 preserveAspectRatio="xMidYMid meet">

<g transform="translate(0.000000,500.000000) scale(0.100000,-0.100000)"
fill="#000000" stroke="none">
<path d="M2710 3137 l0 -275 230 136 c126 75 226 140 222 144 -4 3 -92 57
-197 118 -104 62 -205 121 -222 132 l-33 20 0 -275z"/>
<path d="M2023 2533 l-193 -115 423 -250 c232 -138 428 -253 434 -255 10 -4
13 46 13 231 l0 235 -222 133 c-123 72 -232 133 -243 134 -11 2 -105 -48 -212
-113z"/>
<path d="M1260 1595 l0 -85 55 0 c42 0 55 3 55 15 0 10 -11 15 -35 15 l-35 0
0 70 c0 63 -2 70 -20 70 -18 0 -20 -7 -20 -85z"/>
<path d="M1630 1676 c0 -3 -13 -41 -30 -85 -28 -76 -28 -81 -10 -81 10 0 22 9
25 20 5 15 15 20 40 20 24 0 34 -5 38 -20 3 -11 13 -20 22 -20 19 0 19 -2 -15
98 -20 61 -27 72 -47 72 -13 0 -23 -2 -23 -4z m28 -94 c-28 -5 -30 0 -16 39
l11 33 12 -34 c11 -32 10 -35 -7 -38z"/>
<path d="M1820 1595 l0 -85 55 0 c42 0 55 3 55 15 0 10 -11 15 -35 15 l-35 0
0 70 c0 63 -2 70 -20 70 -18 0 -20 -7 -20 -85z"/>
<path d="M2020 1595 l0 -85 41 0 c56 0 79 14 79 50 0 15 -6 30 -12 33 -10 4
-10 7 0 18 33 36 1 69 -67 69 l-41 0 0 -85z m84 46 c8 -13 -21 -34 -39 -27
-25 9 -18 36 9 36 14 0 27 -4 30 -9z m-5 -60 c21 -13 5 -41 -24 -41 -18 0 -25
5 -25 18 0 31 21 41 49 23z"/>
<path d="M2250 1595 l0 -85 45 0 c33 0 45 4 45 15 0 10 -10 15 -30 15 -25 0
-30 4 -30 25 0 21 5 25 30 25 17 0 30 5 30 10 0 6 -13 10 -30 10 -23 0 -30 4
-30 20 0 16 7 20 30 20 20 0 30 5 30 15 0 11 -12 15 -45 15 l-45 0 0 -85z"/>
<path d="M2440 1595 c0 -78 2 -85 20 -85 16 0 20 7 20 35 0 19 4 35 9 35 5 0
18 -16 30 -35 11 -19 27 -35 36 -35 20 0 19 6 -6 41 -19 28 -20 31 -5 48 36
39 4 81 -62 81 l-42 0 0 -85z m80 36 c0 -10 -7 -22 -16 -25 -23 -9 -24 -8 -24
19 0 18 5 25 20 25 13 0 20 -7 20 -19z"/>
<path d="M2650 1665 c0 -9 9 -15 25 -15 24 0 25 -2 25 -70 0 -56 3 -70 15 -70
12 0 15 14 15 69 0 64 2 70 22 73 12 2 23 9 26 16 3 9 -14 12 -62 12 -52 0
-66 -3 -66 -15z"/>
<path d="M2870 1595 c0 -69 3 -85 15 -85 12 0 15 16 15 85 0 69 -3 85 -15 85
-12 0 -15 -16 -15 -85z"/>
<path d="M3010 1596 c0 -69 3 -86 15 -86 10 0 15 16 17 61 l3 62 34 -62 c27
-47 40 -61 58 -61 22 0 23 3 23 85 0 68 -3 85 -15 85 -10 0 -15 -16 -17 -62
l-3 -63 -36 60 c-23 40 -43 61 -57 63 -21 3 -22 0 -22 -82z"/>
<path d="M3281 1608 c-13 -40 -26 -79 -28 -85 -3 -7 2 -13 12 -13 9 0 19 9 22
20 4 15 14 20 40 20 26 0 36 -5 40 -20 3 -11 14 -20 24 -20 17 0 17 6 -11 82
-17 45 -30 83 -30 85 0 2 -10 3 -23 3 -20 0 -26 -10 -46 -72z m63 0 c5 -24 3
-28 -14 -28 -21 0 -24 10 -14 48 8 27 19 19 28 -20z"/>
<path d="M3480 1665 c0 -11 11 -15 41 -15 l40 0 -40 -58 c-23 -32 -41 -63 -41
-70 0 -8 20 -12 60 -12 47 0 60 3 60 15 0 11 -11 15 -41 15 l-40 0 40 57 c56
77 54 83 -19 83 -47 0 -60 -3 -60 -15z"/>
<path d="M3682 1668 c3 -7 21 -15 42 -18 l37 -5 -40 -57 c-23 -31 -41 -61 -41
-67 0 -7 25 -11 65 -11 51 0 65 3 65 15 0 11 -11 15 -40 15 -22 0 -40 3 -40 6
0 4 16 29 35 55 50 70 48 79 -26 79 -44 0 -60 -3 -57 -12z"/>
<path d="M3900 1595 c0 -69 3 -85 15 -85 12 0 15 16 15 85 0 69 -3 85 -15 85
-12 0 -15 -16 -15 -85z"/>
<path d="M1460 1525 c0 -8 7 -15 15 -15 8 0 15 7 15 15 0 8 -7 15 -15 15 -8 0
-15 -7 -15 -15z"/>
</g>
</svg>
