<?xml version="1.0" encoding="UTF-8"?>
<!DOCTYPE svg PUBLIC "-//W3C//DTD SVG 1.1//EN" "http://www.w3.org/Graphics/SVG/1.1/DTD/svg11.dtd">
<!-- Creator: CorelDRAW X7 -->
<svg xmlns="http://www.w3.org/2000/svg" xml:space="preserve" width="200mm" height="200mm" version="1.1" style="shape-rendering:geometricPrecision; text-rendering:geometricPrecision; image-rendering:optimizeQuality; fill-rule:evenodd; clip-rule:evenodd"
viewBox="0 0 20000 20000"
 xmlns:xlink="http://www.w3.org/1999/xlink">
 <defs>
  <style type="text/css">
   <![CDATA[
    .fil0 {fill:none}
    .fil1 {fill:#FCCD4B;fill-rule:nonzero}
    .fil2 {fill:white;fill-rule:nonzero}
   ]]>
  </style>
 </defs>
 <g id="Camada_x0020_1">
  <metadata id="CorelCorpID_0Corel-Layer"/>
  <rect class="fil0" x="5428" y="5428" width="9144" height="9144"/>
  <g id="_2229107439136">
   <path class="fil1" d="M13881 11095c3,24 -8,50 -15,72l0 0c-38,132 -535,184 -664,219 -585,135 -1187,102 -1781,102 -1712,33 -2000,-267 -3714,-181 -176,9 -346,35 -523,38 -92,-4 -199,29 -282,-21 -114,-162 -203,-536 -131,-726 49,-85 145,-88 227,-97 95,-1 216,-41 303,-3 1604,87 1781,260 3387,221 496,-1 1003,-64 1463,-283 311,-161 583,-425 907,-546 128,-63 244,10 88,133 -195,195 -451,302 -627,514 223,-4 503,-203 710,-98 90,-51 100,53 35,85 -243,128 -504,202 -760,292 -346,106 -701,157 -1038,286l2 2 0 0c531,72 1082,33 1615,-6 121,7 780,-112 798,-3l0 0z"/>
   <path class="fil2" d="M7585 6764c0,0 384,-879 1456,-569 0,0 452,115 563,194 0,0 122,119 -40,87 0,0 50,84 -45,101 0,0 442,571 488,835 0,0 628,429 816,1087 0,0 322,686 193,1347 0,0 12,199 -41,287 0,0 249,507 41,713 0,0 137,635 270,864 0,0 573,855 609,1803 0,0 -122,591 -485,254 0,0 -147,263 -398,-120 0,0 -381,-225 -438,-668 -56,-443 5,-28 5,-28 0,0 -295,-199 -286,-745 0,0 -125,-719 -224,-951 0,0 -204,-118 -247,-417 0,0 -1230,-447 -1502,-1400l-92 -94c0,0 -392,79 -409,-526 0,0 -91,-364 42,-701 0,0 123,-233 96,-437 0,0 -37,-238 -99,-308 0,0 -237,-25 -321,-107 0,0 -376,-108 -581,57 0,0 -344,144 -109,-134 0,0 578,-443 738,-424z"/>
  </g>
 </g>
</svg>
